<svg xmlns="http://www.w3.org/2000/svg" xmlns:xlink="http://www.w3.org/1999/xlink" width="300" zoomAndPan="magnify" viewBox="0 0 224.87999 60" height="80" preserveAspectRatio="xMidYMid meet" version="1.0"><defs><g/><clipPath id="3dc1e9ab6a"><path d="M 1.800781 14.09375 L 36.28125 14.09375 L 36.28125 48.574219 L 1.800781 48.574219 Z M 1.800781 14.09375 " clip-rule="nonzero"/></clipPath><clipPath id="9dbbe5c9ee"><path d="M 0.800781 0.09375 L 35.011719 0.09375 L 35.011719 34.304688 L 0.800781 34.304688 Z M 0.800781 0.09375 " clip-rule="nonzero"/></clipPath><clipPath id="cb066c2e33"><rect x="0" width="36" y="0" height="35"/></clipPath><clipPath id="abe69ad12c"><path d="M 23.804688 36.101562 L 35.800781 36.101562 L 35.800781 48.09375 L 23.804688 48.09375 Z M 23.804688 36.101562 " clip-rule="nonzero"/></clipPath><clipPath id="79ee97b981"><rect x="0" width="184" y="0" height="38"/></clipPath><clipPath id="2875bed3d9"><path d="M 17 1 L 28.839844 1 L 28.839844 12 L 17 12 Z M 17 1 " clip-rule="nonzero"/></clipPath><clipPath id="acfb1f6a9f"><rect x="0" width="29" y="0" height="15"/></clipPath></defs><g clip-path="url(#3dc1e9ab6a)"><g transform="matrix(1, 0, 0, 1, 1, 14)"><g clip-path="url(#cb066c2e33)"><g clip-path="url(#9dbbe5c9ee)"><path fill="#ffffff" d="M 0.800781 34.304688 C 19.695312 34.304688 35.011719 18.988281 35.011719 0.09375 L 0.800781 0.09375 Z M 0.800781 34.304688 " fill-opacity="1" fill-rule="nonzero"/></g></g></g></g><g clip-path="url(#abe69ad12c)"><path fill="#ffffff" d="M 36.011719 36.101562 C 29.269531 36.101562 23.804688 41.566406 23.804688 48.304688 L 36.011719 48.304688 Z M 36.011719 36.101562 " fill-opacity="1" fill-rule="nonzero"/></g><g transform="matrix(1, 0, 0, 1, 39, 12)"><g clip-path="url(#79ee97b981)"><g fill="#ffffff" fill-opacity="1"><g transform="translate(0.872476, 29.242177)"><g><path d="M 11.203125 0.578125 C 9.773438 0.578125 8.457031 0.3125 7.25 -0.21875 C 6.039062 -0.75 4.988281 -1.476562 4.09375 -2.40625 C 3.207031 -3.34375 2.519531 -4.425781 2.03125 -5.65625 C 1.539062 -6.894531 1.296875 -8.210938 1.296875 -9.609375 C 1.296875 -11.003906 1.539062 -12.3125 2.03125 -13.53125 C 2.519531 -14.757812 3.207031 -15.84375 4.09375 -16.78125 C 4.988281 -17.726562 6.039062 -18.460938 7.25 -18.984375 C 8.457031 -19.515625 9.773438 -19.78125 11.203125 -19.78125 C 12.867188 -19.78125 14.347656 -19.457031 15.640625 -18.8125 C 16.941406 -18.175781 18.03125 -17.300781 18.90625 -16.1875 C 19.789062 -15.082031 20.414062 -13.828125 20.78125 -12.421875 L 16.15625 -12.421875 C 15.738281 -13.492188 15.085938 -14.285156 14.203125 -14.796875 C 13.316406 -15.316406 12.328125 -15.578125 11.234375 -15.578125 C 10.535156 -15.578125 9.859375 -15.441406 9.203125 -15.171875 C 8.554688 -14.910156 7.972656 -14.523438 7.453125 -14.015625 C 6.941406 -13.503906 6.535156 -12.878906 6.234375 -12.140625 C 5.929688 -11.398438 5.78125 -10.554688 5.78125 -9.609375 C 5.78125 -8.660156 5.929688 -7.8125 6.234375 -7.0625 C 6.535156 -6.320312 6.941406 -5.691406 7.453125 -5.171875 C 7.972656 -4.660156 8.5625 -4.269531 9.21875 -4 C 9.875 -3.738281 10.546875 -3.609375 11.234375 -3.609375 C 12.328125 -3.609375 13.316406 -3.878906 14.203125 -4.421875 C 15.085938 -4.960938 15.738281 -5.832031 16.15625 -7.03125 L 20.765625 -7.03125 C 20.429688 -5.539062 19.820312 -4.222656 18.9375 -3.078125 C 18.0625 -1.929688 16.960938 -1.035156 15.640625 -0.390625 C 14.328125 0.253906 12.847656 0.578125 11.203125 0.578125 Z M 11.203125 0.578125 "/></g></g></g><g fill="#ffffff" fill-opacity="1"><g transform="translate(20.111829, 29.242177)"><g><path d="M 10.328125 0.578125 C 9.035156 0.578125 7.835938 0.316406 6.734375 -0.203125 C 5.628906 -0.722656 4.671875 -1.453125 3.859375 -2.390625 C 3.046875 -3.328125 2.414062 -4.410156 1.96875 -5.640625 C 1.519531 -6.878906 1.296875 -8.203125 1.296875 -9.609375 C 1.296875 -11.015625 1.519531 -12.328125 1.96875 -13.546875 C 2.425781 -14.773438 3.0625 -15.859375 3.875 -16.796875 C 4.6875 -17.734375 5.640625 -18.460938 6.734375 -18.984375 C 7.835938 -19.515625 9.03125 -19.78125 10.3125 -19.78125 C 11.882812 -19.78125 13.28125 -19.441406 14.5 -18.765625 C 15.71875 -18.085938 16.632812 -17.148438 17.25 -15.953125 L 17.25 -19.203125 L 21.546875 -19.203125 L 21.546875 0 L 17.25 0 L 17.25 -3.234375 C 16.625 -2.035156 15.703125 -1.097656 14.484375 -0.421875 C 13.273438 0.242188 11.890625 0.578125 10.328125 0.578125 Z M 11.421875 -3.609375 C 12.203125 -3.609375 12.9375 -3.757812 13.625 -4.0625 C 14.3125 -4.363281 14.910156 -4.785156 15.421875 -5.328125 C 15.941406 -5.867188 16.34375 -6.503906 16.625 -7.234375 C 16.914062 -7.960938 17.0625 -8.753906 17.0625 -9.609375 C 17.0625 -10.441406 16.914062 -11.222656 16.625 -11.953125 C 16.332031 -12.679688 15.929688 -13.316406 15.421875 -13.859375 C 14.910156 -14.410156 14.3125 -14.835938 13.625 -15.140625 C 12.9375 -15.441406 12.203125 -15.59375 11.421875 -15.59375 C 10.378906 -15.59375 9.429688 -15.34375 8.578125 -14.84375 C 7.734375 -14.351562 7.054688 -13.660156 6.546875 -12.765625 C 6.035156 -11.867188 5.78125 -10.816406 5.78125 -9.609375 C 5.78125 -8.359375 6.035156 -7.285156 6.546875 -6.390625 C 7.066406 -5.492188 7.753906 -4.804688 8.609375 -4.328125 C 9.472656 -3.847656 10.410156 -3.609375 11.421875 -3.609375 Z M 11.421875 -3.609375 "/></g></g></g><g fill="#ffffff" fill-opacity="1"><g transform="translate(41.779904, 29.242177)"><g><path d="M 13.609375 0.578125 C 12.671875 0.578125 11.773438 0.421875 10.921875 0.109375 C 10.078125 -0.203125 9.3125 -0.640625 8.625 -1.203125 C 7.945312 -1.773438 7.390625 -2.453125 6.953125 -3.234375 L 6.953125 0 L 2.65625 0 L 2.65625 -26.3125 L 7.171875 -26.3125 L 7.171875 -18.59375 L 7.0625 -16.0625 C 7.488281 -16.8125 8.03125 -17.460938 8.6875 -18.015625 C 9.34375 -18.578125 10.082031 -19.007812 10.90625 -19.3125 C 11.738281 -19.613281 12.617188 -19.765625 13.546875 -19.765625 C 14.910156 -19.765625 16.160156 -19.5 17.296875 -18.96875 C 18.441406 -18.445312 19.429688 -17.71875 20.265625 -16.78125 C 21.109375 -15.851562 21.757812 -14.773438 22.21875 -13.546875 C 22.675781 -12.328125 22.90625 -11.015625 22.90625 -9.609375 C 22.90625 -8.203125 22.675781 -6.878906 22.21875 -5.640625 C 21.757812 -4.410156 21.109375 -3.328125 20.265625 -2.390625 C 19.421875 -1.453125 18.4375 -0.722656 17.3125 -0.203125 C 16.1875 0.316406 14.953125 0.578125 13.609375 0.578125 Z M 12.78125 -3.59375 C 13.800781 -3.59375 14.738281 -3.832031 15.59375 -4.3125 C 16.445312 -4.800781 17.128906 -5.492188 17.640625 -6.390625 C 18.160156 -7.296875 18.421875 -8.367188 18.421875 -9.609375 C 18.421875 -10.816406 18.164062 -11.867188 17.65625 -12.765625 C 17.144531 -13.660156 16.460938 -14.351562 15.609375 -14.84375 C 14.753906 -15.34375 13.804688 -15.59375 12.765625 -15.59375 C 11.972656 -15.59375 11.238281 -15.441406 10.5625 -15.140625 C 9.882812 -14.835938 9.285156 -14.410156 8.765625 -13.859375 C 8.253906 -13.316406 7.851562 -12.679688 7.5625 -11.953125 C 7.269531 -11.234375 7.125 -10.453125 7.125 -9.609375 C 7.125 -8.734375 7.269531 -7.925781 7.5625 -7.1875 C 7.863281 -6.457031 8.273438 -5.820312 8.796875 -5.28125 C 9.316406 -4.738281 9.921875 -4.320312 10.609375 -4.03125 C 11.296875 -3.738281 12.019531 -3.59375 12.78125 -3.59375 Z M 12.78125 -3.59375 "/></g></g></g><g fill="#ffffff" fill-opacity="1"><g transform="translate(63.952405, 29.242177)"><g><path d="M 7.171875 0 L 2.65625 0 L 2.65625 -26.328125 L 7.171875 -26.328125 Z M 7.171875 0 "/></g></g></g><g fill="#ffffff" fill-opacity="1"><g transform="translate(71.234972, 29.242177)"><g><path d="M 4.875 -22.203125 C 4 -22.203125 3.316406 -22.453125 2.828125 -22.953125 C 2.335938 -23.453125 2.09375 -24.066406 2.09375 -24.796875 C 2.09375 -25.492188 2.335938 -26.097656 2.828125 -26.609375 C 3.316406 -27.117188 4.003906 -27.375 4.890625 -27.375 C 5.804688 -27.375 6.507812 -27.117188 7 -26.609375 C 7.488281 -26.097656 7.734375 -25.492188 7.734375 -24.796875 C 7.734375 -24.066406 7.488281 -23.453125 7 -22.953125 C 6.507812 -22.453125 5.800781 -22.203125 4.875 -22.203125 Z M 7.171875 0 L 2.65625 0 L 2.65625 -19.203125 L 7.171875 -19.203125 Z M 7.171875 0 "/></g></g></g><g fill="#ffffff" fill-opacity="1"><g transform="translate(78.517539, 29.242177)"><g><path d="M 7.171875 0 L 2.65625 0 L 2.65625 -19.203125 L 6.953125 -19.203125 L 6.953125 -16.21875 C 7.328125 -16.914062 7.835938 -17.53125 8.484375 -18.0625 C 9.128906 -18.601562 9.878906 -19.023438 10.734375 -19.328125 C 11.597656 -19.628906 12.523438 -19.78125 13.515625 -19.78125 C 16.085938 -19.78125 18.015625 -18.960938 19.296875 -17.328125 C 20.578125 -15.691406 21.21875 -13.363281 21.21875 -10.34375 L 21.21875 0 L 16.703125 0 L 16.703125 -10.25 C 16.703125 -12.15625 16.300781 -13.523438 15.5 -14.359375 C 14.707031 -15.203125 13.625 -15.625 12.25 -15.625 C 11.375 -15.625 10.546875 -15.398438 9.765625 -14.953125 C 8.992188 -14.503906 8.367188 -13.847656 7.890625 -12.984375 C 7.410156 -12.128906 7.171875 -11.070312 7.171875 -9.8125 Z M 7.171875 0 "/></g></g></g><g fill="#ffffff" fill-opacity="1"><g transform="translate(99.718552, 29.242177)"><g><path d="M 11.453125 7.28125 C 9.804688 7.28125 8.394531 7.070312 7.21875 6.65625 C 6.050781 6.25 5.09375 5.695312 4.34375 5 C 3.601562 4.3125 3.046875 3.53125 2.671875 2.65625 C 2.304688 1.78125 2.109375 0.890625 2.078125 -0.015625 L 6.328125 -0.015625 C 6.472656 0.648438 6.722656 1.242188 7.078125 1.765625 C 7.441406 2.296875 7.972656 2.710938 8.671875 3.015625 C 9.378906 3.316406 10.300781 3.46875 11.4375 3.46875 C 12.476562 3.46875 13.363281 3.316406 14.09375 3.015625 C 14.832031 2.722656 15.429688 2.316406 15.890625 1.796875 C 16.359375 1.273438 16.695312 0.675781 16.90625 0 C 17.125 -0.6875 17.234375 -1.40625 17.234375 -2.15625 L 17.234375 -4.109375 C 16.578125 -2.847656 15.660156 -1.925781 14.484375 -1.34375 C 13.304688 -0.757812 12.003906 -0.46875 10.578125 -0.46875 C 9.210938 -0.46875 7.960938 -0.71875 6.828125 -1.21875 C 5.691406 -1.71875 4.710938 -2.398438 3.890625 -3.265625 C 3.066406 -4.140625 2.425781 -5.148438 1.96875 -6.296875 C 1.519531 -7.453125 1.296875 -8.6875 1.296875 -10 C 1.296875 -11.300781 1.519531 -12.535156 1.96875 -13.703125 C 2.414062 -14.878906 3.046875 -15.925781 3.859375 -16.84375 C 4.671875 -17.757812 5.632812 -18.476562 6.75 -19 C 7.863281 -19.519531 9.085938 -19.78125 10.421875 -19.78125 C 11.566406 -19.78125 12.59375 -19.597656 13.5 -19.234375 C 14.40625 -18.867188 15.171875 -18.390625 15.796875 -17.796875 C 16.421875 -17.210938 16.90625 -16.59375 17.25 -15.9375 L 17.25 -19.203125 L 21.546875 -19.203125 L 21.546875 -2.203125 C 21.546875 -0.859375 21.328125 0.382812 20.890625 1.53125 C 20.453125 2.6875 19.800781 3.691406 18.9375 4.546875 C 18.082031 5.410156 17.03125 6.082031 15.78125 6.5625 C 14.53125 7.039062 13.085938 7.28125 11.453125 7.28125 Z M 11.421875 -4.390625 C 12.203125 -4.390625 12.9375 -4.535156 13.625 -4.828125 C 14.3125 -5.117188 14.910156 -5.523438 15.421875 -6.046875 C 15.941406 -6.578125 16.34375 -7.179688 16.625 -7.859375 C 16.914062 -8.535156 17.0625 -9.253906 17.0625 -10.015625 C 17.0625 -10.765625 16.914062 -11.472656 16.625 -12.140625 C 16.34375 -12.816406 15.945312 -13.410156 15.4375 -13.921875 C 14.925781 -14.441406 14.328125 -14.847656 13.640625 -15.140625 C 12.953125 -15.441406 12.210938 -15.59375 11.421875 -15.59375 C 10.359375 -15.59375 9.398438 -15.359375 8.546875 -14.890625 C 7.691406 -14.421875 7.015625 -13.765625 6.515625 -12.921875 C 6.023438 -12.085938 5.78125 -11.117188 5.78125 -10.015625 C 5.78125 -8.929688 6.023438 -7.960938 6.515625 -7.109375 C 7.015625 -6.265625 7.691406 -5.597656 8.546875 -5.109375 C 9.398438 -4.628906 10.359375 -4.390625 11.421875 -4.390625 Z M 11.421875 -4.390625 "/></g></g></g><g fill="#ffffff" fill-opacity="1"><g transform="translate(121.386626, 29.242177)"><g><path d="M 14.46875 0 L 10.5625 0 C 9.988281 0 9.398438 -0.0507812 8.796875 -0.15625 C 8.191406 -0.257812 7.613281 -0.453125 7.0625 -0.734375 C 6.507812 -1.023438 6.019531 -1.441406 5.59375 -1.984375 C 5.164062 -2.523438 4.820312 -3.226562 4.5625 -4.09375 C 4.3125 -4.96875 4.1875 -6.039062 4.1875 -7.3125 L 4.1875 -15.328125 L 0.203125 -15.328125 L 0.203125 -19.203125 L 4.1875 -19.203125 L 4.1875 -24.828125 L 8.703125 -24.875 L 8.703125 -19.203125 L 14.46875 -19.203125 L 14.46875 -15.328125 L 8.703125 -15.328125 L 8.703125 -7.09375 C 8.703125 -6.195312 8.832031 -5.503906 9.09375 -5.015625 C 9.351562 -4.535156 9.695312 -4.203125 10.125 -4.015625 C 10.5625 -3.835938 11.015625 -3.75 11.484375 -3.75 L 14.46875 -3.75 Z M 14.46875 0 "/></g></g></g><g fill="#ffffff" fill-opacity="1"><g transform="translate(134.329984, 29.242177)"><g><path d="M 11.375 0.578125 C 9.914062 0.578125 8.570312 0.316406 7.34375 -0.203125 C 6.113281 -0.722656 5.046875 -1.453125 4.140625 -2.390625 C 3.234375 -3.328125 2.53125 -4.410156 2.03125 -5.640625 C 1.539062 -6.878906 1.296875 -8.203125 1.296875 -9.609375 C 1.296875 -11.015625 1.539062 -12.328125 2.03125 -13.546875 C 2.53125 -14.773438 3.234375 -15.859375 4.140625 -16.796875 C 5.046875 -17.734375 6.113281 -18.460938 7.34375 -18.984375 C 8.570312 -19.515625 9.921875 -19.78125 11.390625 -19.78125 C 12.878906 -19.78125 14.238281 -19.515625 15.46875 -18.984375 C 16.707031 -18.460938 17.78125 -17.734375 18.6875 -16.796875 C 19.59375 -15.859375 20.296875 -14.773438 20.796875 -13.546875 C 21.296875 -12.328125 21.546875 -11.015625 21.546875 -9.609375 C 21.546875 -8.179688 21.296875 -6.851562 20.796875 -5.625 C 20.296875 -4.40625 19.59375 -3.328125 18.6875 -2.390625 C 17.78125 -1.453125 16.707031 -0.722656 15.46875 -0.203125 C 14.226562 0.316406 12.863281 0.578125 11.375 0.578125 Z M 11.421875 -3.625 C 12.503906 -3.625 13.46875 -3.878906 14.3125 -4.390625 C 15.15625 -4.910156 15.820312 -5.617188 16.3125 -6.515625 C 16.8125 -7.410156 17.0625 -8.441406 17.0625 -9.609375 C 17.0625 -10.765625 16.8125 -11.789062 16.3125 -12.6875 C 15.820312 -13.59375 15.15625 -14.300781 14.3125 -14.8125 C 13.46875 -15.332031 12.503906 -15.59375 11.421875 -15.59375 C 10.347656 -15.59375 9.382812 -15.332031 8.53125 -14.8125 C 7.675781 -14.300781 7.003906 -13.59375 6.515625 -12.6875 C 6.023438 -11.789062 5.78125 -10.765625 5.78125 -9.609375 C 5.78125 -8.441406 6.023438 -7.410156 6.515625 -6.515625 C 7.003906 -5.617188 7.675781 -4.910156 8.53125 -4.390625 C 9.382812 -3.878906 10.347656 -3.625 11.421875 -3.625 Z M 11.421875 -3.625 "/></g></g></g><g fill="#ffffff" fill-opacity="1"><g transform="translate(154.634237, 29.242177)"><g><path d="M 11.375 0.578125 C 9.914062 0.578125 8.570312 0.316406 7.34375 -0.203125 C 6.113281 -0.722656 5.046875 -1.453125 4.140625 -2.390625 C 3.234375 -3.328125 2.53125 -4.410156 2.03125 -5.640625 C 1.539062 -6.878906 1.296875 -8.203125 1.296875 -9.609375 C 1.296875 -11.015625 1.539062 -12.328125 2.03125 -13.546875 C 2.53125 -14.773438 3.234375 -15.859375 4.140625 -16.796875 C 5.046875 -17.734375 6.113281 -18.460938 7.34375 -18.984375 C 8.570312 -19.515625 9.921875 -19.78125 11.390625 -19.78125 C 12.878906 -19.78125 14.238281 -19.515625 15.46875 -18.984375 C 16.707031 -18.460938 17.78125 -17.734375 18.6875 -16.796875 C 19.59375 -15.859375 20.296875 -14.773438 20.796875 -13.546875 C 21.296875 -12.328125 21.546875 -11.015625 21.546875 -9.609375 C 21.546875 -8.179688 21.296875 -6.851562 20.796875 -5.625 C 20.296875 -4.40625 19.59375 -3.328125 18.6875 -2.390625 C 17.78125 -1.453125 16.707031 -0.722656 15.46875 -0.203125 C 14.226562 0.316406 12.863281 0.578125 11.375 0.578125 Z M 11.421875 -3.625 C 12.503906 -3.625 13.46875 -3.878906 14.3125 -4.390625 C 15.15625 -4.910156 15.820312 -5.617188 16.3125 -6.515625 C 16.8125 -7.410156 17.0625 -8.441406 17.0625 -9.609375 C 17.0625 -10.765625 16.8125 -11.789062 16.3125 -12.6875 C 15.820312 -13.59375 15.15625 -14.300781 14.3125 -14.8125 C 13.46875 -15.332031 12.503906 -15.59375 11.421875 -15.59375 C 10.347656 -15.59375 9.382812 -15.332031 8.53125 -14.8125 C 7.675781 -14.300781 7.003906 -13.59375 6.515625 -12.6875 C 6.023438 -11.789062 5.78125 -10.765625 5.78125 -9.609375 C 5.78125 -8.441406 6.023438 -7.410156 6.515625 -6.515625 C 7.003906 -5.617188 7.675781 -4.910156 8.53125 -4.390625 C 9.382812 -3.878906 10.347656 -3.625 11.421875 -3.625 Z M 11.421875 -3.625 "/></g></g></g><g fill="#ffffff" fill-opacity="1"><g transform="translate(174.93849, 29.242177)"><g><path d="M 7.171875 0 L 2.65625 0 L 2.65625 -26.328125 L 7.171875 -26.328125 Z M 7.171875 0 "/></g></g></g></g></g><g transform="matrix(1, 0, 0, 1, 194, 43)"><g clip-path="url(#acfb1f6a9f)"><g fill="#ffffff" fill-opacity="1"><g transform="translate(0.558917, 11.314291)"><g><path d="M 2.984375 0 L 1.171875 0 L 1.171875 -9.875 L 5.328125 -9.875 C 5.828125 -9.875 6.285156 -9.789062 6.703125 -9.625 C 7.117188 -9.457031 7.476562 -9.222656 7.78125 -8.921875 C 8.09375 -8.628906 8.332031 -8.28125 8.5 -7.875 C 8.664062 -7.46875 8.75 -7.023438 8.75 -6.546875 C 8.75 -6.035156 8.664062 -5.570312 8.5 -5.15625 C 8.332031 -4.738281 8.097656 -4.378906 7.796875 -4.078125 C 7.492188 -3.785156 7.132812 -3.554688 6.71875 -3.390625 C 6.3125 -3.234375 5.859375 -3.15625 5.359375 -3.15625 L 2.984375 -3.15625 Z M 2.984375 -8.25 L 2.984375 -4.765625 L 5.28125 -4.765625 C 5.59375 -4.765625 5.875 -4.84375 6.125 -5 C 6.382812 -5.15625 6.585938 -5.363281 6.734375 -5.625 C 6.878906 -5.894531 6.953125 -6.203125 6.953125 -6.546875 C 6.953125 -6.847656 6.875 -7.128906 6.71875 -7.390625 C 6.570312 -7.648438 6.367188 -7.859375 6.109375 -8.015625 C 5.859375 -8.171875 5.578125 -8.25 5.265625 -8.25 Z M 2.984375 -8.25 "/></g></g></g><g fill="#ffffff" fill-opacity="1"><g transform="translate(8.55355, 11.314291)"><g><path d="M 2.984375 0 L 1.171875 0 L 1.171875 -9.875 L 5.4375 -9.875 C 5.9375 -9.875 6.394531 -9.796875 6.8125 -9.640625 C 7.226562 -9.484375 7.585938 -9.257812 7.890625 -8.96875 C 8.191406 -8.6875 8.425781 -8.347656 8.59375 -7.953125 C 8.769531 -7.566406 8.859375 -7.132812 8.859375 -6.65625 C 8.859375 -6.1875 8.773438 -5.757812 8.609375 -5.375 C 8.441406 -5 8.207031 -4.671875 7.90625 -4.390625 C 7.601562 -4.117188 7.25 -3.914062 6.84375 -3.78125 L 9.078125 0 L 7.015625 0 L 5.0625 -3.5 C 5 -3.5 4.9375 -3.5 4.875 -3.5 C 4.8125 -3.5 4.742188 -3.5 4.671875 -3.5 L 2.984375 -3.5 Z M 2.984375 -8.25 L 2.984375 -5.015625 L 5.375 -5.015625 C 5.6875 -5.023438 5.96875 -5.097656 6.21875 -5.234375 C 6.476562 -5.367188 6.679688 -5.554688 6.828125 -5.796875 C 6.972656 -6.046875 7.046875 -6.332031 7.046875 -6.65625 C 7.046875 -6.957031 6.972656 -7.226562 6.828125 -7.46875 C 6.679688 -7.707031 6.476562 -7.894531 6.21875 -8.03125 C 5.96875 -8.175781 5.679688 -8.25 5.359375 -8.25 Z M 2.984375 -8.25 "/></g></g></g><g clip-path="url(#2875bed3d9)"><g fill="#ffffff" fill-opacity="1"><g transform="translate(16.961419, 11.314291)"><g><path d="M 5.796875 0.203125 C 5.210938 0.203125 4.65625 0.117188 4.125 -0.046875 C 3.59375 -0.222656 3.101562 -0.46875 2.65625 -0.78125 C 2.21875 -1.09375 1.832031 -1.460938 1.5 -1.890625 C 1.175781 -2.328125 0.925781 -2.800781 0.75 -3.3125 C 0.570312 -3.832031 0.484375 -4.378906 0.484375 -4.953125 C 0.484375 -5.523438 0.570312 -6.066406 0.75 -6.578125 C 0.925781 -7.097656 1.175781 -7.570312 1.5 -8 C 1.832031 -8.425781 2.21875 -8.796875 2.65625 -9.109375 C 3.101562 -9.421875 3.59375 -9.660156 4.125 -9.828125 C 4.65625 -10.003906 5.210938 -10.09375 5.796875 -10.09375 C 6.378906 -10.09375 6.9375 -10.003906 7.46875 -9.828125 C 8 -9.660156 8.488281 -9.421875 8.9375 -9.109375 C 9.382812 -8.796875 9.769531 -8.425781 10.09375 -8 C 10.414062 -7.570312 10.664062 -7.097656 10.84375 -6.578125 C 11.03125 -6.066406 11.125 -5.523438 11.125 -4.953125 C 11.125 -4.378906 11.03125 -3.832031 10.84375 -3.3125 C 10.664062 -2.800781 10.414062 -2.328125 10.09375 -1.890625 C 9.769531 -1.460938 9.382812 -1.09375 8.9375 -0.78125 C 8.488281 -0.46875 8 -0.222656 7.46875 -0.046875 C 6.945312 0.117188 6.390625 0.203125 5.796875 0.203125 Z M 5.796875 -1.453125 C 6.285156 -1.453125 6.742188 -1.535156 7.171875 -1.703125 C 7.597656 -1.878906 7.972656 -2.125 8.296875 -2.4375 C 8.617188 -2.757812 8.867188 -3.128906 9.046875 -3.546875 C 9.234375 -3.972656 9.328125 -4.4375 9.328125 -4.9375 C 9.328125 -5.445312 9.234375 -5.914062 9.046875 -6.34375 C 8.867188 -6.769531 8.617188 -7.140625 8.296875 -7.453125 C 7.972656 -7.765625 7.597656 -8.007812 7.171875 -8.1875 C 6.742188 -8.363281 6.285156 -8.453125 5.796875 -8.453125 C 5.316406 -8.453125 4.863281 -8.363281 4.4375 -8.1875 C 4.007812 -8.007812 3.632812 -7.757812 3.3125 -7.4375 C 2.988281 -7.125 2.734375 -6.753906 2.546875 -6.328125 C 2.367188 -5.910156 2.28125 -5.445312 2.28125 -4.9375 C 2.28125 -4.4375 2.367188 -3.972656 2.546875 -3.546875 C 2.734375 -3.128906 2.988281 -2.757812 3.3125 -2.4375 C 3.632812 -2.125 4.007812 -1.878906 4.4375 -1.703125 C 4.863281 -1.535156 5.316406 -1.453125 5.796875 -1.453125 Z M 5.796875 -1.453125 "/></g></g></g></g></g></g></svg>